<?xml version="1.0" encoding="iso-8859-1"?>
<svg height="600px" width="600px" version="1.1" id="Layer_1" xmlns="http://www.w3.org/2000/svg" xmlns:xlink="http://www.w3.org/1999/xlink"
	 viewBox="0 0 503.787 503.787" xml:space="preserve">
<g transform="translate(1 37)">
	<path style="fill:#ECF4F7;" d="M447.32,292.288h51.2c0,18.773-15.36,34.133-34.133,34.133H447.32H54.787H37.72
		c-18.773,0-34.133-15.36-34.133-34.133h42.667H447.32z M54.787,326.421H447.32c0,37.547-30.72,68.267-68.267,68.267h-256
		C85.507,394.688,54.787,363.967,54.787,326.421z"/>
	<path style="fill:#FFD0A1;" d="M98.307,241.088c1.707-10.24,7.68-17.067,16.213-17.067s17.067,5.12,21.333,11.947
		c3.413-2.56,7.68-3.413,12.8-3.413c6.827,0,12.8,2.56,17.067,6.827c0.853-13.653,11.947-23.893,25.6-23.893
		c8.533,0,17.067,4.267,21.333,11.093c4.267-6.827,12.8-11.093,21.333-11.093c7.68,0,14.507,3.413,18.773,8.533
		c3.413-10.24,12.8-17.067,23.893-17.067c14.507,0,25.6,11.093,25.6,25.6c0,0.853,0,0.853,0,1.707
		c2.56-0.853,5.973-1.707,8.533-1.707c7.68,0,14.507,3.413,18.773,8.533c3.413-10.24,12.8-17.067,23.893-17.067
		c11.947,0,21.333,7.68,24.747,18.773c3.413-0.853,5.973-1.707,9.387-1.707c9.387,0,17.067,5.12,21.333,11.947
		c3.413-2.56,7.68-3.413,12.8-3.413c7.68,0,14.507,3.413,18.773,8.533c0,0,15.36-1.707,15.36,25.6c0,8.533-7.68,8.533-8.533,8.533
		H46.253c-6.827-12.8-3.413-31.573,17.067-34.133c0.853-8.533,8.533-15.36,17.067-18.773
		C86.36,237.674,92.333,238.528,98.307,241.088"/>
</g>
<path style="fill:#51565F;" d="M380.053,435.954h-256c-38.4,0-69.973-29.867-72.533-68.267h-12.8c-21.333,0-38.4-17.067-38.4-38.4
	c0-2.56,1.707-4.267,4.267-4.267H499.52c2.56,0,4.267,1.707,4.267,4.267c0,21.333-17.067,38.4-38.4,38.4h-12.8
	C450.027,406.088,418.453,435.954,380.053,435.954z M60.053,367.688c2.56,33.28,29.867,59.733,64,59.733h256
	c34.987,0,64-29.013,64-64c0-2.56,1.707-4.267,4.267-4.267h17.067c15.36,0,27.307-11.093,29.867-25.6H9.707
	c1.707,14.507,14.507,25.6,29.867,25.6H415.04c2.56,0,4.267,1.707,4.267,4.267c0,2.56-1.707,4.267-4.267,4.267H60.053z
	 M124.053,299.421c-0.853,0-0.853,0-1.707,0L2.88,248.221c-2.56-0.853-3.413-3.413-2.56-5.973c0.853-2.56,3.413-3.413,5.973-2.56
	l119.467,51.2c2.56,0.853,3.413,3.413,2.56,5.973C127.467,298.567,125.76,299.421,124.053,299.421z M441.493,299.421
	c-0.853,0-2.56-0.853-3.413-1.707c-6.827-6.827-17.067-9.387-26.453-4.267c-1.707,0.853-4.267,0.853-5.973-1.707
	c-5.12-8.533-16.213-11.947-25.6-8.533c-0.853,0.853-2.56,0-3.413,0c-0.853,0-1.707-1.707-2.56-2.56
	c-2.56-9.387-11.093-16.213-20.48-16.213c-8.533,0-17.067,5.973-19.627,13.653c-0.853,1.707-1.707,2.56-3.413,2.56
	s-2.56,0-4.267-1.707c-5.973-5.973-13.653-8.533-23.04-5.12c-1.707,0.853-2.56,0-4.267-0.853c-0.853-0.853-1.707-2.56-1.707-3.413
	v-0.853c0-11.947-9.387-21.333-21.333-21.333c-8.533,0-17.067,5.973-19.627,13.653c-0.853,1.707-1.707,2.56-3.413,2.56
	c-1.707,0-2.56,0-4.267-1.707c-4.267-4.267-9.387-6.827-15.36-6.827c-6.827,0-13.653,3.413-17.92,9.387
	c-1.707,2.56-5.12,2.56-6.827,0c-4.267-5.973-10.24-9.387-17.92-9.387c-11.093,0-20.48,8.533-21.333,19.627
	c0,1.707-0.853,3.413-2.56,3.413c-1.707,0.853-3.413,0-4.267-0.853c-6.827-5.973-16.213-7.68-24.747-2.56
	c-1.707,0.853-4.267,0.853-5.973-1.707c-4.267-5.973-11.093-10.24-17.92-10.24c-2.56,0-4.267-1.707-4.267-4.267
	c0-2.56,1.707-4.267,4.267-4.267c9.387,0,17.067,4.267,23.04,11.093c8.533-3.413,17.92-2.56,25.6,1.707
	c4.267-11.947,15.36-20.48,28.16-20.48c8.533,0,15.36,3.413,21.333,9.387c10.24-10.24,27.307-11.947,38.4-3.413
	c5.12-8.533,14.507-14.507,25.6-14.507c15.36,0,27.307,11.093,29.867,25.6c7.68-1.707,15.36,0.853,22.187,5.12
	c5.12-8.533,14.507-14.507,25.6-14.507c11.947,0,22.187,6.827,27.307,17.92c11.093-2.56,23.04,1.707,29.867,10.24
	c11.947-5.12,25.6-1.707,33.28,7.68c1.707,1.707,1.707,4.267,0,5.973C444.053,299.421,443.2,299.421,441.493,299.421z
	 M311.787,214.088c-1.707,0-3.413-0.853-3.413-2.56c-0.853-1.707,0-4.267,1.707-5.973c0,0,14.507-7.68,14.507-22.187
	c0-6.827-3.413-10.24-7.68-13.653c-4.267-4.267-9.387-9.387-9.387-20.48c0-19.627,18.773-29.013,19.627-29.013
	c1.707-0.853,4.267,0,5.973,1.707c1.707,1.707,0,4.267-1.707,5.973c0,0-14.507,7.68-14.507,22.187c0,6.827,3.413,10.24,7.68,13.653
	c4.267,4.267,9.387,9.387,9.387,20.48c0,19.627-18.773,29.013-19.627,29.013C313.493,214.088,312.64,214.088,311.787,214.088z
	 M175.253,214.088c-1.707,0-3.413-0.853-3.413-2.56c-0.853-1.707,0-4.267,1.707-5.973c0,0,14.507-7.68,14.507-22.187
	c0-6.827-3.413-10.24-7.68-13.653c-4.267-4.267-9.387-9.387-9.387-20.48c0-19.627,18.773-29.013,19.627-29.013
	c1.707-0.853,4.267,0,5.973,1.707c0.853,1.707,0,4.267-1.707,5.973c0,0-14.507,7.68-14.507,22.187c0,6.827,3.413,10.24,7.68,13.653
	c4.267,4.267,9.387,9.387,9.387,20.48c0,19.627-18.773,29.013-19.627,29.013C176.96,214.088,176.107,214.088,175.253,214.088z
	 M243.52,197.021c-1.707,0-3.413-0.853-3.413-2.56c-0.853-1.707,0-4.267,1.707-5.973c0,0,14.507-7.68,14.507-22.187
	c0-6.827-3.413-10.24-7.68-13.653c-4.267-4.267-9.387-9.387-9.387-20.48s5.12-15.36,9.387-20.48c4.267-4.267,7.68-7.68,7.68-13.653
	c0-14.507-14.507-21.333-14.507-22.187c-1.707-0.853-2.56-3.413-1.707-5.973c0.853-1.707,3.413-2.56,5.973-1.707
	c0.853,0,19.627,10.24,19.627,29.013c0,10.24-5.12,15.36-9.387,20.48c-4.267,4.267-7.68,7.68-7.68,13.653s3.413,10.24,7.68,13.653
	c4.267,4.267,9.387,9.387,9.387,20.48c0,19.627-18.773,29.013-19.627,29.013C245.227,197.021,244.373,197.021,243.52,197.021z"/>
</svg>