<svg height="512pt" viewBox="0 -13 512.001 512" width="512pt" xmlns="http://www.w3.org/2000/svg"><path d="m105.261719 11.191406v13.171875c0 6.179688 5.011719 11.1875 11.191406 11.1875h15.886719c5.53125 0 10.019531 4.488281 10.019531 10.019531v49.554688h35.601563v-76.417969c0-10.195312-8.242188-18.46875-18.4375-18.503906l-43.019532-.203125c-6.199218-.0273438-11.242187 4.992188-11.242187 11.191406zm0 0" fill="#fdd79b"/><path d="m177.957031 18.710938v76.40625h-16.179687v-76.40625c0-10.203126-8.238282-18.472657-18.425782-18.511719h16.175782c10.191406.039062 18.429687 8.308593 18.429687 18.511719zm0 0" fill="#fccd7f"/><path d="m258.414062 88.53125h-203.179687c-6.519531 0-12.542969 3.714844-15.792969 9.734375l-19.933594 36.953125h274.632813l-19.933594-36.953125c-3.25-6.019531-9.273437-9.734375-15.792969-9.734375zm0 0" fill="#fef1da"/><path d="m294.136719 135.21875h-274.632813l7.796875-14.453125h225.984375c3.875 0 6.347656-4.136719 4.503906-7.550781l-13.3125-24.679688h13.9375c6.515626 0 12.546876 3.707032 15.796876 9.734375zm0 0" fill="#fde6bf"/><path d="m227.433594 486.355469h-143.980469c-4.621094 0-8.890625-2.289063-11.191406-6.003907l-14.125-22.792968h194.617187l-14.125 22.792968c-2.304687 3.710938-6.574218 6.003907-11.195312 6.003907zm0 0" fill="#fdd79b"/><path d="m293.460938 178.683594-3.210938 62.671875-7.777344 191.816406c-.617187 14.628906-12.550781 26.203125-27.152344 26.441406-.15625.011719-.308593.011719-.464843.011719h-198.820313c-14.804687 0-26.988281-11.667969-27.617187-26.453125l-10.984375-254.488281zm0 0" fill="#ea4444"/><path d="m293.457031 178.683594-2.324219 50.429687-2.132812 8.242188-6.527344 195.816406c-.609375 14.445313-12.246094 25.90625-26.585937 26.421875.472656-1.847656.773437-3.777344.855469-5.769531l10.726562-248.457031c.140625-3.289063-2.488281-6.035157-5.78125-6.035157h-243.371094l-.886718-20.648437zm0 0" fill="#d93131"/><path d="m21.96875 283.753906s129.003906 17.253906 269.3125-54.644531l-5.445312 126.195313s-117.484376 50.148437-259.671876 25.75zm0 0" fill="#fef1da"/><path d="m300.921875 183.980469h-288.195313c-7.03125 0-12.726562-5.695313-12.726562-12.722657v-29.015624c0-7.027344 5.695312-12.722657 12.726562-12.722657h288.195313c7.027344 0 12.726563 5.695313 12.726563 12.722657v29.015624c0 7.027344-5.699219 12.722657-12.726563 12.722657zm0 0" fill="#fdd79b"/><path d="m487.832031 424.082031h-236.042969c-13.347656 0-24.167968-10.820312-24.167968-24.167969v-24.328124c0-13.347657 10.820312-24.167969 24.167968-24.167969h236.046876c13.34375 0 24.164062 10.820312 24.164062 24.167969v24.328124c0 13.347657-10.820312 24.167969-24.167969 24.167969zm0 0" fill="#945b44"/><path d="m487.832031 424.082031h-236.042969c-13.347656 0-24.167968-10.820312-24.167968-24.167969v-24.328124c0-13.347657 10.820312-24.167969 24.167968-24.167969h236.046876c13.34375 0 24.164062 10.820312 24.164062 24.167969v24.328124c0 13.347657-10.820312 24.167969-24.167969 24.167969zm0 0" fill="#945b44"/><path d="m470.902344 486.328125h-202.183594c-22.386719 0-40.535156-18.148437-40.535156-40.535156v-13.964844c0-7.335937 5.945312-13.28125 13.28125-13.28125h256.695312c7.332032 0 13.277344 5.945313 13.277344 13.28125v13.964844c0 22.386719-18.148438 40.535156-40.535156 40.535156zm0 0" fill="#ffc265"/><path d="m511.441406 431.832031v13.957031c0 22.390626-18.152344 40.542969-40.542968 40.542969h-202.179688c-16.878906 0-31.34375-10.324219-37.433594-24.996093 5.800782 3.199218 12.460938 5.027343 19.554688 5.027343h202.175781c22.394531 0 40.535156-18.148437 40.535156-40.53125v-7.289062h4.613281c7.328126 0 13.277344 5.949219 13.277344 13.289062zm0 0" fill="#ffb541"/><path d="m263.03125 351.417969 57.425781 38.808593c7.628907 5.15625 17.679688 4.933594 25.070313-.554687l51.535156-38.253906zm0 0" fill="#fbc700"/><path d="m505.636719 319.15625c-12.644531-33.917969-39.398438-54.003906-65.847657-65.886719-44.410156-19.953125-95.546874-19.953125-139.960937 0-26.445313 11.882813-53.199219 31.96875-65.84375 65.886719-3.3125 8.890625-4.828125 18.351562-4.820313 27.84375.003907 5.613281 4.605469 10.144531 10.21875 10.144531h260.855469c5.613281 0 10.214844-4.53125 10.21875-10.144531.007813-9.492188-1.507812-18.953125-4.820312-27.84375zm0 0" fill="#ffc265"/><path d="m510.460938 347c-.011719 5.609375-4.605469 10.140625-10.222657 10.140625h-260.859375c-5.605468 0-10.210937-4.53125-10.210937-10.140625 0-3.25.175781-6.492188.535156-9.714844.917969.3125 1.890625.464844 2.902344.464844h240.335937c5.171875 0 9.40625-4.167969 9.414063-9.339844 0-8.746094-1.390625-17.460937-4.449219-25.65625-9.042969-24.253906-25.914062-40.832031-44.402344-52.160156 2.105469.847656 4.199219 1.734375 6.285156 2.675781 26.453126 11.882813 53.199219 31.972657 65.847657 65.886719 3.316406 8.890625 4.832031 18.355469 4.824219 27.84375zm0 0" fill="#ffb541"/></svg>